<?xml version="1.0" standalone="no"?>
<!DOCTYPE svg PUBLIC "-//W3C//DTD SVG 20010904//EN"
 "http://www.w3.org/TR/2001/REC-SVG-20010904/DTD/svg10.dtd">
<svg version="1.0" xmlns="http://www.w3.org/2000/svg"
 width="1280.000000pt" height="1211.000000pt" viewBox="0 0 1280.000000 1211.000000"
 preserveAspectRatio="xMidYMid meet">
<g transform="translate(0.000000,1211.000000) scale(0.100000,-0.100000)"
fill="#000000" stroke="none">
<path d="M4275 12091 c-89 -32 -152 -69 -215 -127 -158 -147 -148 -239 63
-594 101 -171 160 -292 195 -400 25 -77 27 -99 27 -240 0 -173 0 -174 -85
-465 -33 -110 -64 -234 -71 -275 -19 -125 5 -358 61 -589 35 -143 39 -236 11
-296 -20 -44 -87 -110 -127 -125 -66 -25 -169 1 -269 70 -67 45 -206 186 -286
290 -214 277 -253 406 -369 1215 -90 626 -106 686 -216 841 -57 82 -124 140
-204 178 -57 27 -75 31 -150 31 -73 0 -93 -4 -142 -28 -111 -54 -229 -218
-283 -392 -44 -143 -38 -643 10 -828 55 -214 162 -443 281 -604 107 -144 289
-300 440 -376 228 -115 491 -376 646 -640 59 -101 126 -256 144 -335 45 -191
-39 -310 -269 -381 -66 -20 -72 -20 -144 -5 -169 35 -370 125 -643 288 -199
119 -272 148 -381 154 -108 5 -178 -13 -237 -64 -49 -42 -68 -74 -83 -143 -21
-99 18 -213 105 -308 83 -92 114 -104 295 -119 478 -41 689 -68 743 -95 22
-11 60 -39 85 -62 79 -72 101 -145 68 -224 -44 -105 -163 -166 -593 -302 -508
-161 -726 -203 -1222 -235 -664 -44 -819 -72 -1025 -188 -163 -92 -283 -208
-358 -348 -36 -68 -47 -109 -67 -250 -33 -229 37 -471 196 -683 143 -191 302
-255 599 -244 314 11 464 120 805 587 298 407 471 569 625 586 42 5 59 1 105
-23 49 -25 59 -36 90 -97 34 -67 35 -72 34 -185 0 -98 -4 -126 -25 -182 -84
-222 -235 -373 -505 -507 -55 -28 -183 -85 -285 -127 -338 -141 -518 -245
-656 -380 -91 -90 -103 -115 -103 -228 0 -123 60 -248 177 -365 130 -130 279
-139 449 -26 169 113 501 498 753 876 144 217 222 278 362 286 70 4 84 2 141
-25 103 -49 184 -146 238 -285 40 -103 39 -166 -5 -397 -44 -231 -45 -281 -6
-344 36 -56 106 -108 186 -139 49 -19 80 -23 165 -23 95 0 110 3 163 28 64 32
93 72 134 184 51 140 93 201 166 238 60 30 88 31 143 6 50 -23 84 -64 84 -104
0 -32 -89 -367 -196 -737 -205 -707 -382 -1171 -631 -1650 -86 -165 -288 -521
-508 -895 -230 -389 -275 -512 -275 -746 -1 -192 48 -365 125 -439 37 -36 148
-80 200 -80 58 0 225 48 312 90 241 117 384 316 463 645 29 122 55 279 125
765 99 691 134 894 205 1205 149 648 325 1152 501 1431 46 72 126 150 164 160
82 21 216 -92 284 -238 108 -233 93 -459 -65 -966 -82 -263 -105 -376 -105
-511 0 -113 15 -190 55 -276 66 -145 167 -188 436 -187 169 1 266 18 350 63
106 56 121 96 127 334 8 317 -15 403 -197 745 -55 102 -107 205 -116 230 -25
65 -25 309 0 400 60 222 206 369 377 378 124 7 168 -33 279 -263 162 -332 297
-736 379 -1135 73 -353 98 -552 136 -1070 38 -529 91 -734 251 -982 124 -192
220 -231 375 -150 139 71 191 178 191 392 1 194 -30 286 -252 750 -225 471
-286 617 -411 985 -220 649 -253 895 -159 1177 61 182 134 243 290 243 89 -1
141 -23 188 -82 46 -59 67 -107 143 -330 135 -397 297 -678 448 -775 34 -21
57 -28 96 -28 113 0 261 78 303 160 23 44 24 48 16 215 -5 94 -9 238 -9 320 0
136 3 155 24 203 53 117 208 192 399 192 306 -1 575 -217 677 -545 53 -170 85
-363 120 -725 32 -337 40 -369 105 -443 67 -77 192 -127 316 -127 98 0 150 13
259 65 115 55 157 91 192 163 25 51 28 67 27 152 -4 347 -139 635 -587 1247
-296 405 -350 541 -302 768 25 116 67 188 169 291 118 118 169 144 281 144
242 0 713 -208 903 -398 152 -152 235 -333 333 -727 97 -390 178 -590 333
-820 75 -111 220 -257 306 -308 172 -100 346 -89 483 33 107 95 171 217 204
388 20 106 29 616 14 788 -31 350 -173 686 -386 913 -143 151 -362 295 -537
352 -102 34 -105 34 -288 34 -167 0 -198 -3 -320 -30 -117 -25 -155 -29 -285
-29 -134 0 -159 3 -238 27 -262 81 -447 209 -525 366 -91 185 -21 338 252 545
177 134 224 194 246 314 15 84 -1 204 -36 274 -33 66 -115 145 -235 229 -174
121 -232 183 -264 280 -41 122 5 292 105 389 159 153 834 481 1204 585 440
123 809 135 1371 43 175 -28 279 -29 325 -3 88 51 189 277 217 482 7 57 -30
211 -71 288 -58 112 -175 205 -311 249 -141 45 -410 58 -635 31 -328 -41 -605
-136 -860 -295 -263 -164 -704 -484 -1040 -755 -251 -203 -374 -282 -516 -334
-108 -39 -187 -53 -313 -52 -303 1 -531 159 -531 366 0 183 171 324 515 425
329 97 547 261 655 495 47 101 60 155 60 248 0 84 -45 279 -81 354 -36 75
-136 125 -249 126 -126 0 -235 -75 -475 -327 -171 -180 -265 -260 -362 -308
-60 -29 -76 -33 -148 -32 -93 1 -159 23 -255 85 -177 114 -260 260 -260 455 0
179 66 408 270 939 111 289 140 395 140 514 0 259 -139 439 -391 508 -47 13
-102 18 -209 18 -208 0 -302 -31 -414 -135 -94 -87 -165 -216 -245 -445 -60
-171 -81 -265 -81 -369 0 -112 17 -183 90 -366 83 -209 103 -277 103 -341 0
-81 -39 -156 -128 -245 -117 -117 -274 -182 -410 -172 -76 7 -102 20 -212 109
-106 86 -143 104 -251 120 -115 16 -199 8 -270 -27 -89 -44 -226 -189 -356
-377 -61 -87 -123 -169 -139 -183 -94 -79 -332 -69 -444 21 -57 45 -73 95 -89
283 -16 199 -25 257 -64 407 -38 147 -62 206 -164 395 -174 322 -167 282 -175
975 -5 391 -10 568 -19 587 -12 30 -78 68 -114 67 -13 0 -45 -8 -73 -18z"/>
</g>
</svg>
